<svg width="39" height="32" viewBox="0 0 39 32" fill="none" xmlns="http://www.w3.org/2000/svg">
<path d="M39 16C39 19.3086 36.2719 22.0011 32.9196 22.0011H23.2638C25.3393 24.2875 25.2481 28.0522 23.0307 30.2446C21.8899 31.3687 20.3438 32 18.7318 32C17.1198 32 15.5737 31.3687 14.433 30.2446L0 16L14.433 1.75539C15.5737 0.631332 17.1198 0 18.7318 0C20.3438 0 21.8899 0.631332 23.0307 1.75539C25.2501 3.94379 25.3413 7.71448 23.2638 9.9989L32.9196 9.9989C36.2719 9.9989 39 12.6914 39 16ZM13.4905 18.0004H32.9196C33.4414 17.9773 33.9342 17.7565 34.2952 17.3839C34.6562 17.0113 34.8577 16.5156 34.8577 16C34.8577 15.4844 34.6562 14.9887 34.2952 14.6161C33.9342 14.2435 33.4414 14.0227 32.9196 13.9996L13.4905 13.9996L20.1648 7.41243C20.5337 7.03162 20.7396 6.52505 20.7396 5.99817C20.7396 5.47129 20.5337 4.96471 20.1648 4.5839C19.9767 4.39798 19.7534 4.25048 19.5075 4.14984C19.2616 4.0492 18.998 3.9974 18.7318 3.9974C18.4656 3.9974 18.2021 4.0492 17.9562 4.14984C17.7103 4.25048 17.4869 4.39798 17.2989 4.5839L5.73184 16L17.2989 27.4161C17.4869 27.602 17.7103 27.7495 17.9562 27.8502C18.2021 27.9508 18.4656 28.0026 18.7318 28.0026C18.998 28.0026 19.2616 27.9508 19.5075 27.8502C19.7534 27.7495 19.9767 27.602 20.1648 27.4161C20.5337 27.0353 20.7396 26.5287 20.7396 26.0018C20.7396 25.475 20.5337 24.9684 20.1648 24.5876L13.4905 18.0004Z" fill="#F8F8F8"/>
</svg>
